<?xml version="1.0" encoding="UTF-8"?>
<svg width="64px" height="64px" viewBox="0 0 64 64" version="1.1" xmlns="http://www.w3.org/2000/svg" xmlns:xlink="http://www.w3.org/1999/xlink">
    <title>64/synodoc</title>
    <defs>
        <path d="M50,50 L50,53 L15,53 L15,50 L50,50 Z M50,43 L50,46 L15,46 L15,43 L50,43 Z M50,36 L50,39 L15,39 L15,36 L50,36 Z" id="path-1"></path>
    </defs>
    <g id="2021Q1-7.0-file-station-icon" stroke="none" stroke-width="1" fill="none" fill-rule="evenodd">
        <g id="64/synodoc">
            <path d="M10,7 L41.7490225,7 C42.5495999,7 43.316968,7.31998675 43.8803725,7.88875702 L56.1313501,20.2564105 C56.6878201,20.8181803 57,21.5769297 57,22.3676535 L57,57 C57,58.6568542 55.6568542,60 54,60 L10,60 C8.34314575,60 7,58.6568542 7,57 L7,10 C7,8.34314575 8.34314575,7 10,7 Z" id="Rectangle" fill="#4987F2"></path>
            <rect id="Rectangle" fill="#1C56BA" x="3" y="3" width="25" height="25" rx="3.5"></rect>
            <path d="M9,18.3632169 L12.2274225,18.0494397 C12.4216665,19.1327235 12.8157518,19.9283649 13.4096902,20.4363876 C14.0036285,20.9444104 14.804873,21.1984179 15.8134476,21.1984179 C16.8817896,21.1984179 17.6867694,20.9724259 18.2284113,20.5204351 C18.7700532,20.0684442 19.0408701,19.5398844 19.0408701,18.9347396 C19.0408701,18.5462516 18.9269403,18.2156682 18.6990771,17.9429796 C18.471214,17.6702909 18.0733933,17.4330926 17.5056032,17.2313777 C17.1171152,17.0969011 16.2318241,16.8578352 14.8497034,16.5141727 C13.0716237,16.0733883 11.8239983,15.5317545 11.1067897,14.8892551 C10.0982151,13.9852734 9.5939354,12.8833288 9.5939354,11.5833883 C9.5939354,10.7466449 9.83113364,9.96407747 10.3055372,9.23566249 C10.7799408,8.50724751 11.46352,7.95253981 12.3562953,7.57152274 C13.2490706,7.19050568 14.3267351,7 15.589321,7 C17.6512957,7 19.2033567,7.45198405 20.2455504,8.35596572 C21.2877442,9.25994739 22.0339344,10.5667871 22.0862308,12.0759135 L18.7691576,12.2215958 C18.6272101,11.3773815 18.1238213,10.6700744 17.6568886,10.3002637 C17.1899559,9.930453 16.4895674,9.74555043 15.555702,9.74555043 C14.591953,9.74555043 13.8374011,9.94352691 13.2920237,10.3394858 C12.9408904,10.5934972 12.7653263,10.9334191 12.7653263,11.3592617 C12.7653263,11.7477497 12.9296841,12.0802008 13.2584047,12.3566249 C13.6767764,12.7077583 14.6928067,13.073828 16.306526,13.4548451 C17.9202454,13.8358622 19.1137074,14.2299474 19.8869479,14.6371127 C20.6601884,15.044278 21.2653241,15.6008534 21.7023731,16.3068556 C22.1394221,17.0128578 22.3579433,17.885075 22.3579433,18.9235333 C22.3579433,19.8648696 22.0964649,20.7464252 21.5735003,21.5682268 C21.0505357,22.3900283 20.3109255,23.0007671 19.3546473,23.4004614 C18.3983692,23.8001558 17.2067749,24 15.7798286,24 C13.7029121,24 12.1078939,23.5200004 10.9947264,22.5599868 C9.88155893,21.5999732 9.21665676,20.2010639 9,18.3632169 Z" id="S" fill="#FFFFFF"></path>
            <g id="Combined-Shape" opacity="0.699999988">
                <use fill="#4987F2" xlink:href="#path-1"></use>
                <use fill="#FFFFFF" xlink:href="#path-1"></use>
            </g>
        </g>
    </g>
</svg>